<?xml version="1.0" standalone="no"?>
<!DOCTYPE svg PUBLIC "-//W3C//DTD SVG 20010904//EN"
 "http://www.w3.org/TR/2001/REC-SVG-20010904/DTD/svg10.dtd">
<svg version="1.0" xmlns="http://www.w3.org/2000/svg"
 width="500.000000pt" height="500.000000pt" viewBox="0 0 500.000000 500.000000"
 preserveAspectRatio="xMidYMid meet">
<metadata>
Created by potrace 1.10, written by Peter Selinger 2001-2011
</metadata>
<g transform="translate(0.000000,500.000000) scale(0.100000,-0.100000)"
fill="#06a8fe" stroke="none">
<path d="M1464 3726 c-64 -28 -75 -53 -245 -556 -21 -63 -68 -200 -104 -305
-37 -104 -75 -219 -86 -255 -11 -36 -24 -81 -30 -101 -7 -21 -8 -43 -3 -50 4
-8 9 -20 10 -29 11 -102 77 -176 183 -207 73 -21 161 -14 231 18 56 26 128 91
210 188 25 30 52 61 60 70 9 9 45 50 80 91 36 41 68 77 71 80 3 3 11 15 18 28
23 43 -16 24 -61 -30 -24 -28 -66 -77 -93 -107 -28 -31 -80 -90 -115 -131 -77
-89 -91 -102 -148 -136 -88 -54 -207 -61 -296 -17 -30 15 -52 31 -49 36 3 6 1
7 -4 4 -12 -7 -41 31 -51 66 -8 29 -8 156 1 186 4 14 12 28 19 33 7 4 10 8 5
8 -4 0 0 17 9 38 8 20 24 64 35 97 11 33 24 69 29 80 5 11 20 54 33 95 13 41
36 107 51 145 14 39 28 79 31 90 2 11 20 65 39 120 82 238 123 351 137 373 13
21 69 54 86 51 4 -1 16 1 26 6 12 5 42 -2 86 -19 51 -20 82 -41 122 -82 130
-134 152 -154 166 -154 8 0 58 43 110 95 52 52 101 95 109 95 8 0 13 4 10 8
-8 13 51 28 118 31 49 2 65 -2 100 -25 22 -15 48 -37 57 -48 9 -12 27 -32 39
-46 12 -14 27 -32 34 -40 6 -8 24 -26 39 -39 44 -39 33 -2 -15 54 -140 162
-153 170 -250 174 -96 3 -148 -22 -240 -117 -41 -43 -82 -88 -92 -102 l-17
-25 -20 25 c-75 94 -149 174 -179 193 -86 55 -189 72 -256 43z"/>
<path d="M2829 3686 c-111 -48 -162 -90 -222 -180 l-26 -39 57 -66 c32 -36 95
-112 139 -168 94 -117 389 -458 423 -488 17 -15 14 -7 -11 30 -19 27 -39 54
-45 60 -6 5 -42 48 -79 95 -38 47 -71 87 -74 90 -4 3 -33 39 -66 80 -33 41
-72 89 -87 105 -16 17 -28 34 -28 39 0 8 -22 34 -66 80 -32 33 -64 83 -58 89
3 3 -3 3 -13 1 -20 -6 -45 29 -40 56 4 20 97 130 110 130 4 0 26 13 49 29 30
21 45 26 50 18 5 -8 11 -9 16 -2 4 6 19 16 35 24 41 22 76 5 103 -49 26 -51
122 -276 182 -425 23 -55 51 -122 63 -150 13 -27 23 -52 24 -55 0 -3 8 -21 17
-40 32 -70 56 -126 69 -165 8 -22 16 -42 19 -45 18 -16 61 -141 67 -190 7 -73
-20 -139 -83 -196 -48 -44 -98 -64 -158 -64 -49 0 -127 19 -147 36 -9 8 -18
12 -21 9 -8 -8 -94 71 -240 220 -75 77 -145 149 -155 161 -20 23 -55 44 -73
44 -17 0 28 -50 226 -252 96 -97 193 -188 217 -202 60 -35 161 -60 216 -52
111 15 204 91 236 192 29 91 18 136 -89 386 -52 123 -131 313 -176 423 -100
246 -159 383 -178 413 -17 26 -62 52 -89 52 -10 0 -52 -15 -94 -34z"/>
<path d="M1713 3440 c6 -11 15 -20 20 -20 4 0 5 -4 2 -10 -3 -5 1 -10 10 -10
14 0 14 3 -2 25 -23 31 -49 44 -30 15z"/>
<path d="M1766 3360 c5 -27 0 -33 -44 -60 -43 -26 -102 -92 -102 -114 0 -8
-56 -90 -80 -116 -8 -10 -22 -26 -30 -36 -69 -85 -156 -190 -165 -196 -6 -5
-7 -8 0 -8 6 0 6 -3 -1 -8 -6 -4 -27 -28 -46 -54 -20 -26 -39 -44 -44 -40 -4
4 -4 2 -1 -5 4 -6 -7 -23 -24 -37 -17 -14 -27 -26 -22 -26 4 0 1 -6 -8 -13
-18 -14 -72 -97 -63 -97 8 0 17 10 139 156 236 281 360 434 355 436 -13 7 94
138 114 139 6 0 22 14 35 30 21 27 22 33 11 55 -18 33 -29 30 -24 -6z"/>
<path d="M1700 3205 c-13 -14 -21 -27 -18 -30 2 -3 15 6 28 20 13 14 21 27 18
30 -2 3 -15 -6 -28 -20z"/>
<path d="M2240 3130 c-14 -11 -32 -20 -41 -20 -33 0 -119 -101 -119 -137 0
-13 14 -4 49 34 27 28 56 61 64 73 15 21 16 21 76 -41 34 -34 61 -63 61 -64 0
-2 -6 -2 -13 -1 -8 0 -29 -19 -48 -44 -47 -61 -83 -65 -130 -16 -30 33 -69 48
-69 28 0 -5 -8 -17 -18 -28 -87 -96 -153 -178 -157 -197 -4 -16 6 -44 34 -92
84 -144 145 -193 253 -202 74 -7 137 11 185 52 36 31 183 226 183 243 0 15
-25 62 -36 66 -6 2 -9 -8 -6 -27 5 -30 -23 -97 -40 -97 -4 0 -8 -7 -8 -15 0
-8 -4 -15 -8 -15 -4 0 -16 -15 -27 -32 -33 -58 -109 -125 -151 -133 -22 -5
-44 -9 -51 -11 -24 -5 -109 19 -138 40 -52 36 -93 88 -87 109 1 5 -2 6 -7 3
-9 -6 -61 91 -61 114 0 13 51 82 87 117 13 12 23 26 22 30 -1 4 11 15 27 24
28 15 30 15 64 -13 53 -43 96 -39 156 16 l47 45 27 -22 c15 -12 26 -25 24 -29
-2 -3 2 -8 8 -11 10 -3 10 -7 -1 -20 -16 -21 -5 -23 15 -3 20 21 18 25 -26 66
-29 27 -40 45 -40 66 0 21 -12 42 -41 73 -31 32 -40 48 -36 67 2 13 4 24 3 24
0 0 -12 -9 -26 -20z"/>
<path d="M2357 2809 c-9 -6 -17 -16 -17 -23 0 -15 -84 -96 -100 -96 -5 0 -10
-4 -10 -10 0 -34 86 29 126 92 28 44 28 52 1 37z"/>
<path d="M3330 2067 c-35 -9 -90 -52 -90 -70 0 -6 13 4 30 21 66 70 180 49
220 -41 10 -23 19 -36 19 -29 2 24 -29 76 -55 96 -36 25 -82 34 -124 23z"/>
<path d="M1005 2058 c-3 -8 -4 -95 -3 -193 l3 -180 45 0 45 0 0 190 0 190 -43
3 c-28 2 -44 -1 -47 -10z m85 -183 l0 -175 -40 0 -40 0 0 175 0 175 40 0 40 0
0 -175z"/>
<path d="M1185 2059 c-3 -8 -4 -96 -3 -194 l3 -180 101 0 c90 1 105 4 146 28
117 68 119 255 4 322 -39 23 -61 28 -146 32 -81 5 -101 3 -105 -8z m226 -23
c68 -29 104 -94 96 -177 -10 -115 -72 -158 -224 -159 l-93 0 0 175 0 175 94 0
c58 0 106 -5 127 -14z"/>
<path d="M1275 1978 c-3 -8 -4 -59 -3 -114 l3 -99 45 2 c78 4 110 36 110 108
0 74 -23 97 -110 111 -30 5 -41 3 -45 -8z m105 -21 c16 -8 28 -26 34 -48 19
-76 -19 -129 -91 -129 l-43 0 0 95 0 95 38 0 c20 0 48 -6 62 -13z"/>
<path d="M1582 2057 c-16 -19 -12 -355 4 -368 7 -5 66 -8 135 -7 l124 3 0 45
0 45 -82 3 -83 3 0 29 0 30 70 0 70 0 0 40 0 40 -71 0 -70 0 3 28 c3 26 4 27
75 28 39 1 76 5 82 9 15 8 14 58 -1 73 -18 18 -242 17 -256 -1z m248 -37 l0
-30 -80 0 -80 0 0 -40 0 -40 70 0 70 0 0 -30 0 -30 -70 0 -70 0 0 -40 c0 -45
-4 -43 93 -40 l67 2 0 -39 0 -38 -120 3 -120 3 0 175 0 174 120 0 120 0 0 -30z"/>
<path d="M2043 2062 c-11 -7 -64 -133 -62 -150 0 -11 58 111 58 126 1 8 17 12
45 12 49 0 58 -8 76 -65 7 -22 31 -80 52 -130 22 -49 41 -97 43 -105 2 -8 7
-24 10 -35 6 -19 2 -20 -39 -17 -42 4 -47 7 -55 36 -6 21 -9 24 -10 11 -2 -40
26 -65 74 -65 24 0 46 4 49 9 3 4 -17 64 -45 132 -28 68 -60 147 -71 174 -11
28 -24 56 -30 63 -11 13 -76 16 -95 4z"/>
<path d="M2334 2056 c-3 -8 -4 -27 -2 -43 3 -28 4 -28 81 -31 42 -2 77 -5 77
-8 0 -2 -36 -52 -80 -110 -69 -90 -80 -110 -80 -145 l0 -40 153 3 152 3 0 45
0 45 -82 3 -82 3 84 108 c84 108 99 143 73 169 -19 19 -287 17 -294 -2z m286
-37 c0 -29 -27 -71 -102 -159 -7 -9 -26 -32 -41 -53 l-28 -37 28 -1 c15 0 54
0 86 1 l57 1 0 -35 0 -36 -140 0 -140 0 0 28 c0 20 24 60 84 137 47 60 82 113
80 117 -3 5 -41 8 -85 8 l-79 0 0 30 0 30 140 0 140 0 0 -31z"/>
<path d="M2842 2053 c-32 -16 -62 -57 -62 -87 0 -19 72 -44 78 -27 15 46 85
55 90 11 2 -20 -14 -42 -83 -109 -80 -78 -86 -87 -83 -120 l3 -36 135 0 135 0
0 45 0 45 -58 5 -58 5 41 40 c23 22 48 52 56 67 19 36 18 98 -2 126 -35 51
-127 68 -192 35z m161 -19 c29 -21 43 -69 33 -110 -4 -15 -32 -53 -63 -85 -31
-33 -53 -62 -50 -66 4 -3 34 -5 67 -4 l60 2 0 -35 0 -36 -130 0 -130 0 0 26
c0 19 20 46 79 103 44 42 84 86 90 99 29 57 -56 90 -97 37 -17 -22 -24 -24
-46 -15 -30 11 -33 26 -10 59 37 52 142 65 197 25z"/>
<path d="M3329 1974 c-18 -22 -24 -137 -9 -174 7 -16 21 -32 32 -35 27 -9 68
20 67 48 -1 20 -1 19 -10 -5 -14 -38 -48 -47 -71 -18 -13 16 -18 39 -18 85 0
46 5 69 18 85 23 29 57 20 71 -18 5 -15 10 -20 10 -12 3 47 -61 78 -90 44z"/>
<path d="M3226 1964 c-8 -22 -7 -167 2 -181 4 -6 7 36 7 93 0 57 -1 104 -1
104 -1 0 -5 -7 -8 -16z"/>
<path d="M2082 1948 c-12 -15 -42 -93 -42 -109 0 -5 23 -9 50 -9 51 0 57 6 41
38 -12 24 -29 64 -33 81 -3 11 -6 11 -16 -1z m39 -90 c8 -16 4 -18 -32 -18
-35 0 -40 3 -34 18 4 9 12 33 17 52 l11 35 14 -35 c9 -19 19 -43 24 -52z"/>
<path d="M3423 1875 c0 -22 2 -30 4 -17 2 12 2 30 0 40 -3 9 -5 -1 -4 -23z"/>
<path d="M1932 1800 c-22 -57 -38 -108 -36 -112 3 -4 25 -8 49 -8 41 0 45 3
61 35 9 20 14 38 11 41 -2 3 -11 -9 -18 -25 -12 -27 -19 -31 -51 -31 -21 0
-38 4 -38 8 0 4 16 46 35 92 19 47 34 89 32 95 -2 5 -22 -37 -45 -95z"/>
<path d="M3491 1777 c-18 -53 -66 -87 -124 -87 -40 0 -53 6 -87 36 -22 20 -40
32 -40 26 0 -5 16 -24 35 -41 30 -26 44 -31 88 -31 33 0 63 7 83 19 31 19 69
82 61 104 -2 7 -9 -5 -16 -26z"/>
<path d="M3107 1772 c-33 -37 -11 -92 37 -92 48 0 73 62 38 93 -24 22 -55 21
-75 -1z m79 -27 c4 -30 -15 -55 -41 -55 -28 0 -49 31 -40 60 11 34 76 31 81
-5z"/>
</g>
</svg>
